<mxfile host="65bd71144e">
    <diagram id="Z4bislkCZCzLa6wyw-eV" name="Page-1">
        <mxGraphModel dx="1128" dy="679" grid="1" gridSize="10" guides="1" tooltips="1" connect="1" arrows="1" fold="1" page="1" pageScale="1" pageWidth="1169" pageHeight="827" background="#ffffff" math="0" shadow="0">
            <root>
                <mxCell id="0"/>
                <mxCell id="1" parent="0"/>
                <mxCell id="44" style="edgeStyle=none;html=1;fontSize=12;fontColor=#000000;strokeColor=#0066CC;strokeWidth=2;entryX=1;entryY=0;entryDx=0;entryDy=0;exitX=1;exitY=1;exitDx=0;exitDy=0;" edge="1" parent="1" source="11" target="13">
                    <mxGeometry relative="1" as="geometry">
                        <mxPoint x="963.3851219512194" y="110" as="sourcePoint"/>
                        <mxPoint x="892.1995121951218" y="140" as="targetPoint"/>
                    </mxGeometry>
                </mxCell>
                <mxCell id="11" value="" style="strokeColor=#dddddd;shadow=1;strokeWidth=1;rounded=1;absoluteArcSize=1;arcSize=2;labelBackgroundColor=none;fontColor=default;fillColor=#99FFFF;" vertex="1" parent="1">
                    <mxGeometry x="790" y="40" width="166.88" height="60" as="geometry"/>
                </mxCell>
                <mxCell id="12" value="&lt;font color=&quot;#000000&quot;&gt;Given K8s Cluster&lt;br&gt;&lt;br&gt;&lt;/font&gt;" style="sketch=0;dashed=0;connectable=0;html=1;fillColor=#5184F3;strokeColor=none;shape=mxgraph.gcp2.kubernetes_logo;part=1;labelPosition=right;verticalLabelPosition=middle;align=left;verticalAlign=middle;spacingLeft=5;fontColor=#999999;fontSize=12;labelBackgroundColor=none;" vertex="1" parent="11">
                    <mxGeometry width="45" height="43.65" relative="1" as="geometry">
                        <mxPoint x="5" y="7.675000000000001" as="offset"/>
                    </mxGeometry>
                </mxCell>
                <mxCell id="33" style="edgeStyle=none;html=1;entryX=0.5;entryY=0;entryDx=0;entryDy=0;entryPerimeter=0;fontSize=12;fontColor=#000000;strokeColor=#0066CC;strokeWidth=2;" edge="1" parent="1" source="17" target="31">
                    <mxGeometry relative="1" as="geometry"/>
                </mxCell>
                <mxCell id="17" value="Service Users" style="sketch=0;html=1;dashed=0;whitespace=wrap;fillColor=#2875E2;strokeColor=#ffffff;points=[[0.005,0.63,0],[0.1,0.2,0],[0.9,0.2,0],[0.5,0,0],[0.995,0.63,0],[0.72,0.99,0],[0.5,1,0],[0.28,0.99,0]];shape=mxgraph.kubernetes.icon;prIcon=user;rounded=1;shadow=0;glass=0;labelBackgroundColor=none;fontSize=12;fontColor=#000000;labelPosition=center;verticalLabelPosition=top;align=center;verticalAlign=bottom;" vertex="1" parent="1">
                    <mxGeometry x="640" y="46" width="50" height="48" as="geometry"/>
                </mxCell>
                <mxCell id="27" style="edgeStyle=none;html=1;entryX=0.5;entryY=0;entryDx=0;entryDy=0;entryPerimeter=0;fontSize=12;fontColor=#000000;strokeColor=#0066CC;strokeWidth=2;" edge="1" parent="1" source="18" target="3">
                    <mxGeometry relative="1" as="geometry"/>
                </mxCell>
                <mxCell id="28" style="edgeStyle=none;html=1;entryX=0.1;entryY=0.2;entryDx=0;entryDy=0;entryPerimeter=0;fontSize=12;fontColor=#000000;strokeColor=#0066CC;strokeWidth=2;" edge="1" parent="1" source="18" target="26">
                    <mxGeometry relative="1" as="geometry"/>
                </mxCell>
                <mxCell id="32" style="edgeStyle=none;html=1;exitX=0.995;exitY=0.63;exitDx=0;exitDy=0;exitPerimeter=0;entryX=0.1;entryY=0.2;entryDx=0;entryDy=0;entryPerimeter=0;fontSize=12;fontColor=#000000;strokeColor=#0066CC;strokeWidth=2;" edge="1" parent="1" source="18" target="48">
                    <mxGeometry relative="1" as="geometry"/>
                </mxCell>
                <mxCell id="41" style="edgeStyle=none;html=1;entryX=0.5;entryY=0;entryDx=0;entryDy=0;entryPerimeter=0;fontSize=12;fontColor=#000000;strokeColor=#0066CC;strokeWidth=2;" edge="1" parent="1" source="18" target="40">
                    <mxGeometry relative="1" as="geometry"/>
                </mxCell>
                <mxCell id="18" value="Admin Users" style="sketch=0;html=1;dashed=0;whitespace=wrap;fillColor=#2875E2;strokeColor=#ffffff;points=[[0.005,0.63,0],[0.1,0.2,0],[0.9,0.2,0],[0.5,0,0],[0.995,0.63,0],[0.72,0.99,0],[0.5,1,0],[0.28,0.99,0]];shape=mxgraph.kubernetes.icon;prIcon=user;rounded=1;shadow=0;glass=0;labelBackgroundColor=none;fontSize=12;fontColor=#000000;labelPosition=center;verticalLabelPosition=top;align=center;verticalAlign=bottom;" vertex="1" parent="1">
                    <mxGeometry x="226.5" y="52" width="50" height="48" as="geometry"/>
                </mxCell>
                <mxCell id="38" value="AWS Managed Elastic Search" style="sketch=0;outlineConnect=0;fontColor=#232F3E;gradientColor=none;strokeColor=#ffffff;fillColor=#232F3E;dashed=0;verticalLabelPosition=top;verticalAlign=bottom;align=center;html=1;whiteSpace=wrap;fontSize=10;fontStyle=1;spacing=3;shape=mxgraph.aws4.productIcon;prIcon=mxgraph.aws4.managed_services;rounded=1;shadow=0;glass=0;labelBackgroundColor=none;labelPosition=center;" vertex="1" parent="1">
                    <mxGeometry x="970" y="339" width="80" height="81" as="geometry"/>
                </mxCell>
                <mxCell id="13" value="" style="swimlane;startSize=0;labelBackgroundColor=none;fontColor=#ffffff;fillColor=#0050ef;strokeWidth=1;rounded=1;arcSize=13;swimlaneLine=0;dashed=1;shadow=0;sketch=0;glass=0;strokeColor=#001DBC;align=right;labelPosition=left;verticalLabelPosition=middle;verticalAlign=middle;" vertex="1" parent="1">
                    <mxGeometry x="30" y="140" width="930" height="280" as="geometry">
                        <mxRectangle x="30" y="140" width="50" height="40" as="alternateBounds"/>
                    </mxGeometry>
                </mxCell>
                <mxCell id="23" style="edgeStyle=none;html=1;entryX=0.5;entryY=0;entryDx=0;entryDy=0;entryPerimeter=0;fontSize=12;fontColor=#000000;strokeColor=#0066CC;strokeWidth=2;" edge="1" parent="13" source="16" target="2">
                    <mxGeometry relative="1" as="geometry"/>
                </mxCell>
                <mxCell id="16" value="Terracotta Management&lt;br&gt;Console Server&lt;br&gt;&amp;lt;Deployment, 0-1 replicas&amp;gt;" style="sketch=0;html=1;dashed=0;whitespace=wrap;fillColor=#2875E2;strokeColor=#ffffff;points=[[0.005,0.63,0],[0.1,0.2,0],[0.9,0.2,0],[0.5,0,0],[0.995,0.63,0],[0.72,0.99,0],[0.5,1,0],[0.28,0.99,0]];shape=mxgraph.kubernetes.icon;prIcon=ds;rounded=1;shadow=0;glass=0;labelBackgroundColor=none;fontSize=12;fontColor=#000000;labelPosition=left;verticalLabelPosition=middle;align=right;verticalAlign=middle;" vertex="1" parent="13">
                    <mxGeometry x="156.5" y="104.16666666666667" width="50" height="50" as="geometry"/>
                </mxCell>
                <mxCell id="2" value="Terracotta BigMemory&lt;br&gt;Single Stripe&lt;br&gt;&amp;lt;Stateful Set, 1 or 2 replicas&amp;gt;" style="sketch=0;html=1;dashed=0;whitespace=wrap;fillColor=#2875E2;strokeColor=#ffffff;points=[[0.005,0.63,0],[0.1,0.2,0],[0.9,0.2,0],[0.5,0,0],[0.995,0.63,0],[0.72,0.99,0],[0.5,1,0],[0.28,0.99,0]];shape=mxgraph.kubernetes.icon;prIcon=sts;labelPosition=left;verticalLabelPosition=middle;align=right;verticalAlign=middle;fontColor=#000000;" vertex="1" parent="13">
                    <mxGeometry x="156.5" y="208.33333333333334" width="50" height="50" as="geometry"/>
                </mxCell>
                <mxCell id="19" value="" style="edgeStyle=none;html=1;fontSize=12;fontColor=#000000;strokeColor=#0066CC;strokeWidth=2;" edge="1" parent="13" source="3" target="16">
                    <mxGeometry relative="1" as="geometry"/>
                </mxCell>
                <mxCell id="3" value="Terracotta&lt;br&gt;Management&lt;br&gt;Console&lt;br&gt;&amp;lt;Ingress&amp;gt;" style="sketch=0;html=1;dashed=0;whitespace=wrap;fillColor=#2875E2;strokeColor=#ffffff;points=[[0.005,0.63,0],[0.1,0.2,0],[0.9,0.2,0],[0.5,0,0],[0.995,0.63,0],[0.72,0.99,0],[0.5,1,0],[0.28,0.99,0]];shape=mxgraph.kubernetes.icon;prIcon=ing;fontColor=#000000;labelPosition=left;verticalLabelPosition=middle;align=right;verticalAlign=middle;" vertex="1" parent="13">
                    <mxGeometry x="156.5" y="16.666666666666668" width="50" height="50" as="geometry"/>
                </mxCell>
                <mxCell id="20" value="Elasticsearch Cluster for&lt;br&gt;Core API Gateway Data&lt;br&gt;&amp;lt;Stateful set, 3+ replicas&amp;gt;" style="sketch=0;html=1;dashed=0;whitespace=wrap;fillColor=#2875E2;strokeColor=#ffffff;points=[[0.005,0.63,0],[0.1,0.2,0],[0.9,0.2,0],[0.5,0,0],[0.995,0.63,0],[0.72,0.99,0],[0.5,1,0],[0.28,0.99,0]];shape=mxgraph.kubernetes.icon;prIcon=sts;rounded=1;shadow=0;glass=0;labelBackgroundColor=none;fontSize=12;fontColor=#000000;labelPosition=left;verticalLabelPosition=middle;align=right;verticalAlign=middle;" vertex="1" parent="13">
                    <mxGeometry x="435" y="219.24999999999997" width="50" height="50" as="geometry"/>
                </mxCell>
                <mxCell id="24" style="edgeStyle=none;html=1;entryX=0.9;entryY=0.2;entryDx=0;entryDy=0;entryPerimeter=0;fontSize=12;fontColor=#000000;strokeColor=#0066CC;strokeWidth=2;" edge="1" parent="13" source="22" target="20">
                    <mxGeometry relative="1" as="geometry"/>
                </mxCell>
                <mxCell id="22" value="Elasticsearch Kibana Server for&lt;br&gt;Core API Gateway Dashboards&lt;br&gt;&amp;lt;Deployment, 1+ replicas&amp;gt;" style="sketch=0;html=1;dashed=0;whitespace=wrap;fillColor=#2875E2;strokeColor=#ffffff;points=[[0.005,0.63,0],[0.1,0.2,0],[0.9,0.2,0],[0.5,0,0],[0.995,0.63,0],[0.72,0.99,0],[0.5,1,0],[0.28,0.99,0]];shape=mxgraph.kubernetes.icon;prIcon=ds;rounded=1;shadow=0;glass=0;labelBackgroundColor=none;fontSize=12;fontColor=#000000;labelPosition=right;verticalLabelPosition=middle;align=left;verticalAlign=middle;" vertex="1" parent="13">
                    <mxGeometry x="535" y="190" width="50" height="50" as="geometry"/>
                </mxCell>
                <mxCell id="29" style="edgeStyle=none;html=1;entryX=0.5;entryY=0;entryDx=0;entryDy=0;entryPerimeter=0;fontSize=12;fontColor=#000000;strokeColor=#0066CC;strokeWidth=2;" edge="1" parent="13" source="25" target="22">
                    <mxGeometry relative="1" as="geometry"/>
                </mxCell>
                <mxCell id="47" style="edgeStyle=none;html=1;entryX=0.9;entryY=0.2;entryDx=0;entryDy=0;entryPerimeter=0;labelBackgroundColor=none;fontSize=12;fontColor=#006600;strokeColor=#0066CC;strokeWidth=2;" edge="1" parent="13" source="25" target="2">
                    <mxGeometry relative="1" as="geometry"/>
                </mxCell>
                <mxCell id="25" value="API Gateway Servers&lt;br&gt;&amp;lt;Deployment, 1+ replicas&amp;gt;" style="sketch=0;html=1;dashed=0;whitespace=wrap;fillColor=#2875E2;strokeColor=#ffffff;points=[[0.005,0.63,0],[0.1,0.2,0],[0.9,0.2,0],[0.5,0,0],[0.995,0.63,0],[0.72,0.99,0],[0.5,1,0],[0.28,0.99,0]];shape=mxgraph.kubernetes.icon;prIcon=ds;rounded=1;shadow=0;glass=0;labelBackgroundColor=none;fontSize=12;fontColor=#000000;labelPosition=right;verticalLabelPosition=middle;align=left;verticalAlign=middle;" vertex="1" parent="13">
                    <mxGeometry x="539.5" y="115" width="50" height="50" as="geometry"/>
                </mxCell>
                <mxCell id="26" value="API Gateway&lt;br&gt;Administration (9072)&lt;br&gt;&amp;lt;Ingress&amp;gt;" style="sketch=0;html=1;dashed=0;whitespace=wrap;fillColor=#2875E2;strokeColor=#ffffff;points=[[0.005,0.63,0],[0.1,0.2,0],[0.9,0.2,0],[0.5,0,0],[0.995,0.63,0],[0.72,0.99,0],[0.5,1,0],[0.28,0.99,0]];shape=mxgraph.kubernetes.icon;prIcon=ing;rounded=1;shadow=0;glass=0;labelBackgroundColor=none;fontSize=12;fontColor=#000000;labelPosition=left;verticalLabelPosition=middle;align=right;verticalAlign=middle;" vertex="1" parent="13">
                    <mxGeometry x="470" y="54.16666666666667" width="50" height="50" as="geometry"/>
                </mxCell>
                <mxCell id="30" style="edgeStyle=none;html=1;fontSize=12;fontColor=#000000;strokeColor=#0066CC;strokeWidth=2;entryX=0.1;entryY=0.2;entryDx=0;entryDy=0;entryPerimeter=0;" edge="1" parent="13" source="26" target="25">
                    <mxGeometry relative="1" as="geometry"/>
                </mxCell>
                <mxCell id="34" style="edgeStyle=none;html=1;entryX=0.9;entryY=0.2;entryDx=0;entryDy=0;entryPerimeter=0;fontSize=12;fontColor=#000000;strokeColor=#0066CC;strokeWidth=2;" edge="1" parent="13" source="31" target="25">
                    <mxGeometry relative="1" as="geometry"/>
                </mxCell>
                <mxCell id="31" value="API Gateway&lt;br&gt;Service(50110)&lt;br&gt;&amp;lt;Ingress&amp;gt;" style="sketch=0;html=1;dashed=0;whitespace=wrap;fillColor=#2875E2;strokeColor=#ffffff;points=[[0.005,0.63,0],[0.1,0.2,0],[0.9,0.2,0],[0.5,0,0],[0.995,0.63,0],[0.72,0.99,0],[0.5,1,0],[0.28,0.99,0]];shape=mxgraph.kubernetes.icon;prIcon=ing;rounded=1;shadow=0;glass=0;labelBackgroundColor=none;fontSize=12;fontColor=#000000;labelPosition=right;verticalLabelPosition=middle;align=left;verticalAlign=middle;" vertex="1" parent="13">
                    <mxGeometry x="610" y="4.166666666666668" width="50" height="50" as="geometry"/>
                </mxCell>
                <mxCell id="37" style="edgeStyle=none;html=1;fontSize=12;fontColor=#000000;strokeColor=#0066CC;strokeWidth=2;entryX=0.5;entryY=0;entryDx=0;entryDy=0;entryPerimeter=0;" edge="1" parent="13" source="25" target="20">
                    <mxGeometry relative="1" as="geometry"/>
                </mxCell>
                <mxCell id="39" value="&lt;br&gt;&lt;br&gt;&lt;br&gt;&lt;br&gt;ElasticVue&lt;br&gt;&amp;lt;Deployment, 0+replicas&amp;gt;" style="sketch=0;html=1;dashed=0;whitespace=wrap;fillColor=#2875E2;strokeColor=#ffffff;points=[[0.005,0.63,0],[0.1,0.2,0],[0.9,0.2,0],[0.5,0,0],[0.995,0.63,0],[0.72,0.99,0],[0.5,1,0],[0.28,0.99,0]];shape=mxgraph.kubernetes.icon;prIcon=ds;rounded=1;shadow=0;glass=0;labelBackgroundColor=none;fontSize=12;fontColor=#000000;labelPosition=left;verticalLabelPosition=middle;align=right;verticalAlign=middle;" vertex="1" parent="13">
                    <mxGeometry x="350" y="90.00500000000001" width="50" height="50" as="geometry"/>
                </mxCell>
                <mxCell id="43" style="edgeStyle=none;html=1;entryX=0.1;entryY=0.2;entryDx=0;entryDy=0;entryPerimeter=0;fontSize=12;fontColor=#000000;strokeColor=#0066CC;strokeWidth=2;" edge="1" parent="13" source="39" target="20">
                    <mxGeometry relative="1" as="geometry"/>
                </mxCell>
                <mxCell id="40" value="Elasticvue&lt;br&gt;&amp;lt;Ingress&amp;gt;" style="sketch=0;html=1;dashed=0;whitespace=wrap;fillColor=#2875E2;strokeColor=#ffffff;points=[[0.005,0.63,0],[0.1,0.2,0],[0.9,0.2,0],[0.5,0,0],[0.995,0.63,0],[0.72,0.99,0],[0.5,1,0],[0.28,0.99,0]];shape=mxgraph.kubernetes.icon;prIcon=ing;rounded=1;shadow=0;glass=0;labelBackgroundColor=none;fontSize=12;fontColor=#000000;labelPosition=left;verticalLabelPosition=middle;align=right;verticalAlign=middle;" vertex="1" parent="13">
                    <mxGeometry x="270" y="16.670000000000016" width="50" height="50" as="geometry"/>
                </mxCell>
                <mxCell id="42" style="edgeStyle=none;html=1;entryX=0.1;entryY=0.2;entryDx=0;entryDy=0;entryPerimeter=0;fontSize=12;fontColor=#000000;strokeColor=#0066CC;strokeWidth=2;" edge="1" parent="13" source="40" target="39">
                    <mxGeometry relative="1" as="geometry"/>
                </mxCell>
                <mxCell id="14" value="API Gateway Namespace&lt;br&gt;&amp;lt;Quota&amp;gt;" style="sketch=0;html=1;dashed=0;whitespace=wrap;fillColor=#2875E2;strokeColor=#ffffff;points=[[0.005,0.63,0],[0.1,0.2,0],[0.9,0.2,0],[0.5,0,0],[0.995,0.63,0],[0.72,0.99,0],[0.5,1,0],[0.28,0.99,0]];shape=mxgraph.kubernetes.icon;prIcon=quota;rounded=1;shadow=0;glass=0;labelBackgroundColor=none;fontSize=12;fontColor=#000000;labelPosition=left;verticalLabelPosition=middle;align=right;verticalAlign=middle;" vertex="1" parent="13">
                    <mxGeometry x="893.9983333333334" y="80.49666666666668" width="36" height="36" as="geometry"/>
                </mxCell>
                <mxCell id="9" value="API Gateway Namespace&lt;br&gt;&amp;lt;Limits&amp;gt;" style="sketch=0;html=1;dashed=0;whitespace=wrap;fillColor=#2875E2;strokeColor=#ffffff;points=[[0.005,0.63,0],[0.1,0.2,0],[0.9,0.2,0],[0.5,0,0],[0.995,0.63,0],[0.72,0.99,0],[0.5,1,0],[0.28,0.99,0]];shape=mxgraph.kubernetes.icon;prIcon=limits;fontColor=#000000;labelPosition=left;verticalLabelPosition=middle;align=right;verticalAlign=middle;" vertex="1" parent="13">
                    <mxGeometry x="893.9983333333334" y="40" width="36" height="36" as="geometry"/>
                </mxCell>
                <mxCell id="10" value="API Gateway&lt;br&gt;&amp;lt;Namespace&amp;gt;" style="sketch=0;html=1;dashed=0;whitespace=wrap;fillColor=#2875E2;strokeColor=#ffffff;points=[[0.005,0.63,0],[0.1,0.2,0],[0.9,0.2,0],[0.5,0,0],[0.995,0.63,0],[0.72,0.99,0],[0.5,1,0],[0.28,0.99,0]];shape=mxgraph.kubernetes.icon;prIcon=ns;fontColor=#000000;labelPosition=left;verticalLabelPosition=middle;align=right;verticalAlign=middle;fontSize=12;" vertex="1" parent="13">
                    <mxGeometry x="893.9983333333334" y="0.0011309523809472921" width="36" height="36" as="geometry"/>
                </mxCell>
                <mxCell id="50" value="" style="edgeStyle=none;html=1;labelBackgroundColor=none;fontSize=12;fontColor=#006600;strokeColor=#0066CC;strokeWidth=2;entryX=0.5;entryY=0;entryDx=0;entryDy=0;entryPerimeter=0;" edge="1" parent="13" source="48" target="25">
                    <mxGeometry relative="1" as="geometry"/>
                </mxCell>
                <mxCell id="48" value="API Gateway&lt;br&gt;IS Administration (5555)&lt;br&gt;&amp;lt;Ingress&amp;gt;" style="sketch=0;html=1;dashed=0;whitespace=wrap;fillColor=#2875E2;strokeColor=#ffffff;points=[[0.005,0.63,0],[0.1,0.2,0],[0.9,0.2,0],[0.5,0,0],[0.995,0.63,0],[0.72,0.99,0],[0.5,1,0],[0.28,0.99,0]];shape=mxgraph.kubernetes.icon;prIcon=ing;rounded=1;shadow=0;glass=0;labelBackgroundColor=none;fontSize=12;fontColor=#000000;labelPosition=left;verticalLabelPosition=middle;align=right;verticalAlign=middle;" vertex="1" parent="13">
                    <mxGeometry x="539.5" y="4.16666666666667" width="50" height="50" as="geometry"/>
                </mxCell>
                <mxCell id="46" value="Transaction Data" style="edgeStyle=none;html=1;fontSize=12;fontColor=#006600;strokeColor=#006600;strokeWidth=2;labelBackgroundColor=none;labelPosition=right;verticalLabelPosition=top;align=left;verticalAlign=bottom;" edge="1" parent="1" source="25" target="38">
                    <mxGeometry relative="1" as="geometry"/>
                </mxCell>
            </root>
        </mxGraphModel>
    </diagram>
</mxfile>